<svg xmlns="http://www.w3.org/2000/svg" viewBox="0 0 64 64" id="ink"><path d="M43.382 2.061c-4.63.55-7.975 2.877-9.867 4.594l-1.307-1.308a.994.994 0 0 0-1.006-.247c-7.833 2.413-12.04 11.25-8.774 18.99a41.601 41.601 0 0 0-2.508 3.964H15.5c-1.654 0-3 1.346-3 3v3H9.72c-1.837 0-3.429 1.264-3.87 3.069A45.682 45.682 0 0 0 4.5 48.054c.005 3.683.457 7.32 1.349 10.928.442 1.809 2.034 3.072 3.871 3.072h21.56c3.08-.04 4.003-2.7 4.356-5.307 3.774 1.323 7.933-1.69 7.864-5.693 0-3.133-4.805-7.298-5.353-7.762-.759-.508-1.151-.171-1.856.501a45.702 45.702 0 0 0-1.14-6.666c-.442-1.809-2.034-3.073-3.871-3.073H28.5v-3c0-1.654-1.346-3-3-3h-3.278a39.777 39.777 0 0 1 1.852-2.83c5.185 1.322 11.633.095 16.029-3.372a1 1 0 0 0 .346-1.114l-.603-1.809c6.064-.585 6.864-.664 7.88-.901 4.19-.975 8.082-3.79 11.57-8.367a1 1 0 0 0-.048-1.27c-.674-.76-6.85-7.394-15.866-6.33ZM33.21 58.507c-.223.912-1.016 1.547-1.93 1.547H9.72c-2.42-.096-2.161-3.283-2.624-5h25.948c.233.26.478.506.746.717a42.664 42.664 0 0 1-.581 2.736Zm3.017-11.845c.478-.504.932-.944 1.28-1.267 1.759 1.623 3.994 4.178 3.994 5.66 0 2.205-1.794 4-4 4-2.147.039-4.043-1.837-4-4 0-.948.977-2.532 2.726-4.393Zm-1.802-.991c-2.56 2.98-3.484 4.579-2.578 7.383H6.82a39.853 39.853 0 0 1 0-10h27.371c.104.862.184 1.734.233 2.617Zm-3.144-9.617c2.422.097 2.16 3.283 2.624 5H7.096c.46-1.71.202-4.905 2.624-5h21.56Zm-5.78-6c.551 0 1 .449 1 1v3h-12v-3c0-.551.449-1 1-1h10Zm21.773-13.973c-.9.209-1.692.286-7.857.88l-1.012.098c-.622.044-1.065.725-.853 1.312l.768 2.304c-3.431 2.626-9.287 3.629-12.907 2.783a39.432 39.432 0 0 1 20.355-13.44 1 1 0 0 0-.534-1.928 41.415 41.415 0 0 0-21.36 14.091c-2.05-6.297 1.637-12.972 7.363-14.977l1.556 1.557c.397.385 1.043.388 1.42-.005C41.359 1.47 51.5 3.284 57.179 9.12c-3.055 3.8-6.385 6.141-9.906 6.96Z"></path><path d="M43.15 33.295a.997.997 0 0 0-1.3 0c-.644.551-3.85 3.417-3.85 5.717 0 2.505 2.019 4.542 4.5 4.542s4.5-2.037 4.5-4.542c0-2.3-3.206-5.166-3.85-5.717Zm-.65 8.26c-1.378 0-2.5-1.141-2.5-2.543 0-.853 1.323-2.462 2.5-3.602 1.177 1.14 2.5 2.749 2.5 3.602 0 1.402-1.122 2.542-2.5 2.542Z"></path></svg>